<svg width="24" height="24" viewBox="0 0 142 142" fill="none" xmlns="http://www.w3.org/2000/svg">
  <path d="M60.199 61.324C60.144 72.975 60.115 84.312 60.144 91.096C70.276 90.546 75.294 88.482 79.263 83.713C82.078 80.332 82.687 76.459 80.98 72.807C78.747 68.033 72.18 62.99 60.199 61.324ZM53.536 104.795C51.735 104.795 50.007 104.076 48.738 102.796L48.735 102.793C46.743 100.784 46.715 98.862 46.665 95.374C46.64 93.65 46.624 91.208 46.617 88.29C46.606 83.172 46.619 76.071 46.654 67.181C46.715 51.886 46.826 36.638 46.826 36.638L60.345 36.737C60.32 40.115 60.296 43.83 60.272 47.706C76.268 49.553 88.283 56.5 93.223 67.066C97.164 75.494 95.826 84.959 89.647 92.384C80.117 103.836 66.581 104.795 53.536 104.795Z" fill="#42CE9F"/>
</svg>
