<svg width="24" height="24" viewBox="0 0 142 142" fill="none" xmlns="http://www.w3.org/2000/svg">
  <path d="M87.057 103.243C80.958 103.243 77.128 102.967 70.217 101.228C60.376 98.752 52.279 93.479 47.418 86.376C40.238 75.89 40.38 64.063 47.808 53.927C52.785 47.139 60.967 42.28 70.846 40.243C77.488 38.872 81.236 38.901 86.876 38.939C87.896 38.948 88.993 38.956 90.207 38.956L90.207 54.188C88.956 54.188 87.821 54.18 86.769 54.173C81.579 54.133 78.98 54.116 73.913 55.161C67.727 56.438 62.81 59.2 60.068 62.941C56.501 67.809 56.466 72.658 59.96 77.763C62.722 81.797 67.682 84.885 73.923 86.456C80.35 88.071 82.964 88.045 89.94 87.994L90.065 103.226C88.995 103.234 87.997 103.243 87.057 103.243Z" fill="#C5C5C5"/>
</svg>
